<?xml version="1.0" encoding="utf-8"?>
<!-- Generator: Adobe Illustrator 25.3.0, SVG Export Plug-In . SVG Version: 6.00 Build 0)  -->
<svg version="1.1" id="Kit_de_iconos_de_aplicación_B"
	 xmlns="http://www.w3.org/2000/svg" xmlns:xlink="http://www.w3.org/1999/xlink" x="0px" y="0px" viewBox="0 0 881 180"
	 style="enable-background:new 0 0 881 180;" xml:space="preserve">
<style type="text/css">
	.st0{fill:#0D47A1;}
	.st1{fill:#F0F0EE;}
	.st2{fill:#FFFFFF;}
</style>
<g id="Insignia_e_icono_circular_de_aplicación">
	<g id="Icono_de_la_aplicación_circular_de_42_mm">
	</g>
	<g id="Icono_de_la_aplicación_circular_de_38_mm">
	</g>
	<g id="Principal">
	</g>
</g>
<g id="Icono_e_insignia_de_aplicación">
	<g id="Notificaciones_y_actividad">
	</g>
	<g id="Icono_de_configuración">
	</g>
	<g id="Icono_de_foco">
	</g>
	<g id="Icono_de_aplicación">
	</g>
	<g id="Principal_1_">
	</g>
</g>
<circle class="st0" cx="96" cy="90.4" r="87.8"/>
<g>
	<g>
		<path class="st1" d="M95.3,40.8v59.8h-14v-4.4c-2.7,3.4-6.8,5.1-12.3,5.1c-3.8,0-7.3-0.9-10.5-2.8S52.9,94,51,90.6
			c-1.8-3.4-2.8-7.4-2.8-11.9s0.9-8.5,2.8-11.9c1.8-3.4,4.3-6,7.5-7.9c3.2-1.8,6.6-2.7,10.5-2.7c5,0,8.9,1.5,11.6,4.5V40.8H95.3z
			 M78.3,86.4c1.7-1.9,2.5-4.4,2.5-7.7c0-3.2-0.8-5.7-2.4-7.6c-1.6-1.8-3.7-2.7-6.3-2.7c-2.6,0-4.7,0.9-6.4,2.7
			c-1.7,1.8-2.5,4.4-2.5,7.6c0,3.3,0.8,5.8,2.5,7.7c1.7,1.9,3.8,2.8,6.4,2.8C74.6,89.2,76.7,88.2,78.3,86.4z"/>
	</g>
	<g>
		<path class="st1" d="M133.5,59c3.1,1.9,5.6,4.5,7.4,7.9c1.8,3.4,2.8,7.4,2.8,11.9s-0.9,8.5-2.8,11.9c-1.8,3.4-4.3,6-7.4,7.9
			c-3.1,1.9-6.6,2.8-10.4,2.8c-4.9,0-8.8-1.5-11.7-4.6v19.5H96.7V56.9h14v4.4c2.7-3.4,6.9-5.1,12.4-5.1
			C126.9,56.2,130.4,57.1,133.5,59z M126.3,86.4c1.7-1.9,2.5-4.4,2.5-7.6s-0.8-5.8-2.5-7.6c-1.7-1.9-3.8-2.8-6.4-2.8
			s-4.7,0.9-6.4,2.8c-1.7,1.9-2.5,4.4-2.5,7.6s0.8,5.8,2.5,7.6c1.7,1.9,3.8,2.8,6.4,2.8C122.6,89.2,124.7,88.2,126.3,86.4z"/>
	</g>
	<g>
		<g>
			<path class="st1" d="M123.4,119.2C119.5,130.8,110,139,99,139s-20.6-8.2-24.5-19.8h-0.6c3.9,12,13.7,20.5,25.1,20.5
				s21.1-8.5,25.1-20.5H123.4z"/>
		</g>
		<g>
			<path class="st1" d="M99,140c-11.1,0-21.4-8.3-25.4-20.7l-0.2-0.5h1.4l0.1,0.3c4,11.9,13.5,19.5,24.1,19.5s20.1-7.7,24.1-19.5
				l0.1-0.3h1.4l-0.2,0.5C120.3,131.9,110.3,140,99,140z"/>
		</g>
	</g>
</g>
<g>
	<path class="st2" d="M96,166.5c-10.3,0-20.2-2-29.6-6c-9.1-3.8-17.2-9.3-24.2-16.3S29.7,129.1,25.9,120c-4-9.4-6-19.4-6-29.6
		s2-20.2,6-29.6c3.8-9.1,9.3-17.2,16.3-24.2s15.1-12.5,24.2-16.3c9.4-4,19.4-6,29.6-6s20.2,2,29.6,6c9.1,3.8,17.2,9.3,24.2,16.3
		s12.5,15.1,16.3,24.2c4,9.4,6,19.4,6,29.6s-2,20.2-6,29.6c-3.8,9.1-9.3,17.2-16.3,24.2s-15.1,12.5-24.2,16.3
		C116.2,164.5,106.3,166.5,96,166.5z M96,15.8c-41.1,0-74.6,33.4-74.6,74.6S54.9,165,96,165s74.6-33.4,74.6-74.6S137.1,15.8,96,15.8
		z"/>
</g>
<g>
	<path class="st0" d="M250,145.2c-8.7,0-16.5-2-23.4-5.9c-7-3.9-12.4-9.4-16.5-16.5c-4-7.1-6.1-15.4-6.1-25c0-9.7,2-18.1,6.1-25.1
		c4-7.1,9.5-12.5,16.5-16.4c6.9-3.9,14.8-5.8,23.4-5.8c7.7,0,14.5,1.7,20.3,5.1s10.3,8.6,13.5,15.6s4.8,15.8,4.8,26.7
		c0,10.7-1.5,19.6-4.6,26.6c-3.1,7-7.5,12.2-13.2,15.6C265.1,143.5,258.1,145.2,250,145.2z M254.7,123.3c4.3,0,8.3-1,11.8-3.1
		s6.3-5,8.5-8.8c2.1-3.8,3.2-8.3,3.2-13.6c0-5.4-1.1-9.9-3.2-13.7c-2.1-3.8-4.9-6.7-8.5-8.7c-3.5-2.1-7.5-3.1-11.8-3.1
		c-4.4,0-8.4,1-12,3.1c-3.5,2.1-6.4,5-8.5,8.7c-2.1,3.8-3.2,8.3-3.2,13.7c0,5.2,1.1,9.8,3.2,13.6c2.1,3.8,4.9,6.8,8.5,8.8
		C246.2,122.3,250.2,123.3,254.7,123.3z M278.8,143.8V125l0.5-27.3l-1.7-27.2V17h26.7v126.8H278.8z"/>
	<path class="st0" d="M374.5,145.2c-10.5,0-19.7-2.1-27.6-6.2c-7.9-4.1-14-9.7-18.4-16.8c-4.3-7.1-6.5-15.2-6.5-24.4
		s2.1-17.4,6.4-24.5s10.1-12.7,17.5-16.7s15.8-6.1,25.1-6.1c9,0,17.1,1.9,24.4,5.7c7.2,3.8,13,9.3,17.2,16.4s6.3,15.6,6.3,25.5
		c0,1-0.1,2.2-0.2,3.5s-0.2,2.5-0.3,3.7h-74.7V89.8h60.7l-10.3,4.6c0-4.8-1-8.9-2.9-12.5c-1.9-3.5-4.6-6.3-8-8.3s-7.4-3-12-3
		s-8.6,1-12,3c-3.5,2-6.2,4.8-8.1,8.4s-2.9,7.8-2.9,12.7v4.1c0,5,1.1,9.4,3.3,13.2c2.2,3.8,5.4,6.7,9.4,8.7s8.8,3,14.3,3
		c4.9,0,9.2-0.7,12.9-2.2c3.7-1.5,7.1-3.7,10.2-6.7l14.2,15.4c-4.2,4.8-9.5,8.5-15.9,11C390.1,143.9,382.8,145.2,374.5,145.2z"/>
	<path class="st0" d="M436.7,176.9v-125h25.5v18.8L461.6,98l1.7,27.2V177h-26.6V176.9z M491,145.2c-7.7,0-14.5-1.7-20.3-5.1
		c-5.8-3.4-10.3-8.6-13.6-15.6c-3.2-7-4.9-15.9-4.9-26.6c0-10.8,1.5-19.7,4.6-26.7c3.1-6.9,7.5-12.1,13.3-15.6
		c5.8-3.4,12.8-5.1,20.8-5.1c8.7,0,16.4,2,23.3,5.9s12.4,9.4,16.4,16.5s6.1,15.4,6.1,25c0,9.7-2,18.1-6.1,25.1
		c-4,7.1-9.5,12.5-16.4,16.4C507.4,143.2,499.7,145.2,491,145.2z M486.4,123.3c4.4,0,8.4-1,11.9-3.1s6.3-5,8.4-8.8
		c2.1-3.8,3.2-8.3,3.2-13.6c0-5.4-1.1-9.9-3.2-13.7c-2.1-3.8-4.9-6.7-8.4-8.7c-3.5-2.1-7.4-3.1-11.9-3.1s-8.4,1-12,3.1
		c-3.5,2.1-6.3,5-8.4,8.7c-2.1,3.8-3.1,8.3-3.1,13.7c0,5.2,1,9.8,3.1,13.6c2.1,3.8,4.8,6.8,8.4,8.8
		C478,122.3,481.9,123.3,486.4,123.3z"/>
	<path class="st0" d="M554.6,176.9v-125H580v18.8L579.5,98l1.7,27.2V177h-26.6V176.9z M608.9,145.2c-7.7,0-14.5-1.7-20.3-5.1
		c-5.8-3.4-10.3-8.6-13.6-15.6c-3.2-7-4.9-15.9-4.9-26.6c0-10.8,1.5-19.7,4.6-26.7c3.1-6.9,7.5-12.1,13.3-15.6
		c5.8-3.4,12.8-5.1,20.8-5.1c8.7,0,16.4,2,23.3,5.9c6.9,3.9,12.4,9.4,16.4,16.5s6.1,15.4,6.1,25c0,9.7-2,18.1-6.1,25.1
		c-4,7.1-9.5,12.5-16.4,16.4C625.3,143.2,617.6,145.2,608.9,145.2z M604.3,123.3c4.4,0,8.4-1,11.9-3.1s6.3-5,8.4-8.8
		c2.1-3.8,3.2-8.3,3.2-13.6c0-5.4-1.1-9.9-3.2-13.7c-2.1-3.8-4.9-6.7-8.4-8.7c-3.5-2.1-7.4-3.1-11.9-3.1s-8.4,1-12,3.1
		c-3.5,2.1-6.3,5-8.4,8.7c-2.1,3.8-3.1,8.3-3.1,13.7c0,5.2,1,9.8,3.1,13.6c2.1,3.8,4.8,6.8,8.4,8.8
		C595.9,122.3,599.9,123.3,604.3,123.3z"/>
	<path class="st0" d="M672.5,143.8V17h26.7v126.8H672.5z"/>
	<path class="st0" d="M737.3,39c-4.9,0-8.9-1.4-12-4.3c-3.1-2.8-4.6-6.4-4.6-10.6s1.5-7.7,4.6-10.6c3.1-2.8,7.1-4.3,12-4.3
		s8.9,1.3,12,4s4.6,6.1,4.6,10.3c0,4.4-1.5,8.1-4.5,11C746.3,37.6,742.3,39,737.3,39z M723.9,143.8V51.9h26.7v91.9H723.9z"/>
	<path class="st0" d="M831.2,50.5c7.3,0,13.8,1.5,19.6,4.4s10.3,7.3,13.6,13.3s5,13.6,5,23v52.6h-26.7V95.3c0-7.4-1.6-12.9-4.9-16.4
		c-3.2-3.5-7.8-5.3-13.8-5.3c-4.2,0-8,0.9-11.4,2.6c-3.4,1.8-6,4.5-7.9,8.1s-2.8,8.3-2.8,14v45.5h-26.7V51.9h25.5v25.5l-4.8-7.7
		c3.3-6.2,8-10.9,14.2-14.2C816.4,52.1,823.4,50.5,831.2,50.5z"/>
</g>
</svg>
